<svg width="25" height="20" viewBox="0 0 25 20" fill="none" xmlns="http://www.w3.org/2000/svg">
<path d="M24.453 2.57009C23.5545 2.96569 22.6026 3.22683 21.628 3.34509C22.6541 2.72834 23.4224 1.76113 23.791 0.622087C22.84 1.17709 21.786 1.58109 20.664 1.80609C19.9238 1.01452 18.9429 0.489508 17.8736 0.312589C16.8044 0.135669 15.7067 0.316738 14.7509 0.827678C13.7952 1.33862 13.0349 2.15084 12.5881 3.13821C12.1412 4.12558 12.033 5.23286 12.28 6.28809C8.19 6.09509 4.567 4.13009 2.14 1.16209C1.69879 1.9119 1.46866 2.76711 1.474 3.63709C1.474 5.34709 2.344 6.85009 3.662 7.73309C2.88086 7.70822 2.11697 7.49702 1.434 7.11709V7.17709C1.43356 8.31348 1.82627 9.41503 2.54551 10.2948C3.26474 11.1747 4.26621 11.7786 5.38 12.0041C4.6583 12.1975 3.90241 12.2265 3.168 12.0891C3.48412 13.0671 4.09766 13.922 4.92301 14.5346C5.74837 15.1471 6.74435 15.4868 7.772 15.5061C6.03153 16.872 3.88248 17.6134 1.67 17.6111C1.28 17.6111 0.891 17.5881 0.5 17.5441C2.75571 18.9884 5.37851 19.7551 8.057 19.7531C17.11 19.7531 22.055 12.2571 22.055 5.76809C22.055 5.55809 22.055 5.34809 22.04 5.13809C23.006 4.44295 23.8392 3.57991 24.5 2.59009L24.453 2.57009Z" fill="#F4F4F4"/>
</svg>
