<svg width="8" height="10" viewBox="0 0 8 10" fill="none" xmlns="http://www.w3.org/2000/svg">
<path d="M6.25568 3.35795L5.86364 4.21023H0.306818L0.613636 3.35795H6.25568ZM5.52273 5.0625L5.13068 5.91477H0.306818L0.613636 5.0625H5.52273ZM7.26136 1.05682L6.85227 1.94318C6.67045 1.77841 6.47869 1.63636 6.27699 1.51705C6.07528 1.39773 5.86364 1.3054 5.64205 1.24006C5.42045 1.17472 5.1875 1.14205 4.94318 1.14205C4.46023 1.14205 4.02557 1.27557 3.6392 1.54261C3.25284 1.80966 2.94744 2.20312 2.72301 2.72301C2.49858 3.2429 2.38636 3.88068 2.38636 4.63636C2.38636 5.39205 2.49858 6.02983 2.72301 6.54972C2.94744 7.0696 3.25284 7.46307 3.6392 7.73011C4.02557 7.99716 4.46023 8.13068 4.94318 8.13068C5.19318 8.13068 5.42898 8.09801 5.65057 8.03267C5.875 7.96733 6.08381 7.87784 6.27699 7.7642C6.47301 7.65057 6.65341 7.52273 6.81818 7.38068L7.24432 8.26705C6.94602 8.5483 6.59659 8.76136 6.19602 8.90625C5.79545 9.0483 5.37784 9.11932 4.94318 9.11932C4.24432 9.11932 3.625 8.9375 3.08523 8.57386C2.5483 8.21023 2.12642 7.69318 1.8196 7.02273C1.51563 6.35227 1.36364 5.55682 1.36364 4.63636C1.36364 3.71591 1.51563 2.92045 1.8196 2.25C2.12642 1.57955 2.5483 1.0625 3.08523 0.698864C3.625 0.335227 4.24432 0.153409 4.94318 0.153409C5.39489 0.153409 5.81676 0.231534 6.20881 0.387784C6.60369 0.544034 6.95455 0.767045 7.26136 1.05682Z" fill="black"/>
</svg>
