<svg width="25" height="22" viewBox="0 0 25 22" fill="none" xmlns="http://www.w3.org/2000/svg">
<path d="M13.316 6.56624V9.28994H22.5347V6.56624H13.316ZM11.2674 6.56624H2.04861V9.28994H11.2674V6.56624ZM11.2674 11.1057H3.07292V20.1847H11.2674V11.1057ZM13.316 11.1057V20.1847H21.5104V11.1057H13.316ZM6.49082 4.75044C6.26293 4.3249 6.14507 3.85964 6.14583 3.38859C6.14583 1.63362 7.75092 0.210938 9.7309 0.210938C10.734 0.210938 11.6409 0.576095 12.2917 1.16469C12.9424 0.576095 13.8493 0.210938 14.8524 0.210938C16.8324 0.210938 18.4375 1.63362 18.4375 3.38859C18.4383 3.85964 18.3204 4.3249 18.0925 4.75044H22.5347C23.6662 4.75044 24.5833 5.56337 24.5833 6.56624V10.1978C24.5833 10.6993 24.1248 11.1057 23.559 11.1057V21.0927C23.559 21.5941 23.1004 22.0006 22.5347 22.0006H2.04861C1.48289 22.0006 1.02431 21.5941 1.02431 21.0927V11.1057C0.458582 11.1057 0 10.6993 0 10.1978V6.56624C0 5.56337 0.917163 4.75044 2.04861 4.75044H6.49082ZM14.8524 4.75044C15.701 4.75044 16.3889 4.14069 16.3889 3.38859C16.3889 2.63648 15.701 2.02674 14.8524 2.02674C14.0039 2.02674 13.316 2.63648 13.316 3.38859C13.316 4.14069 14.0039 4.75044 14.8524 4.75044ZM9.7309 4.75044C10.5794 4.75044 11.2674 4.14069 11.2674 3.38859C11.2674 2.63648 10.5794 2.02674 9.7309 2.02674C8.88237 2.02674 8.19444 2.63648 8.19444 3.38859C8.19444 4.14069 8.88237 4.75044 9.7309 4.75044Z" fill="#F4F4F4"/>
</svg>
