<svg width="25" height="26" viewBox="0 0 25 26" fill="none" xmlns="http://www.w3.org/2000/svg">
<path d="M12.4781 0.12738C5.90249 0.12738 0.510311 5.25436 0 11.7707L6.71231 14.5747C7.28106 14.1833 7.96773 13.9523 8.70763 13.9523C8.77338 13.9523 8.83808 13.9565 8.90382 13.9586L11.8895 9.58908V9.52684C11.8895 6.89478 14.0059 4.75432 16.6107 4.75432C19.2133 4.75432 21.3318 6.89689 21.3318 9.53C21.3318 12.1631 19.2133 14.3036 16.6107 14.3036H16.5011L12.2475 17.3745C12.2475 17.4293 12.2516 17.4853 12.2516 17.5422C12.2516 19.5202 10.6706 21.1248 8.71389 21.1248C7.00764 21.1248 5.56645 19.8873 5.23773 18.248L0.432042 16.2362C1.92019 21.5499 6.7457 25.4458 12.4781 25.4458C19.3939 25.4458 25 19.7776 25 12.7866C25 5.79554 19.3928 0.12738 12.4781 0.12738ZM7.84563 19.3377L6.30844 18.6942C6.58186 19.267 7.05356 19.7481 7.6797 20.0129C9.03323 20.5815 10.5944 19.9327 11.1569 18.5623C11.4314 17.8977 11.4324 17.1709 11.1621 16.5063C10.8918 15.8417 10.3794 15.3237 9.72512 15.0473C9.07393 14.773 8.3789 14.7846 7.76528 15.0157L9.35465 15.6803C10.3523 16.1022 10.8251 17.2627 10.4076 18.2701C9.99332 19.2797 8.84434 19.7576 7.84563 19.3377ZM19.7581 9.52367C19.7581 7.77037 18.3461 6.34305 16.6117 6.34305C14.8741 6.34305 13.4653 7.77037 13.4653 9.52367C13.4653 11.2801 14.8741 12.7043 16.6117 12.7043C18.3472 12.7043 19.7581 11.2801 19.7581 9.52367ZM14.2553 9.5184C14.2553 8.19762 15.3124 7.12792 16.619 7.12792C17.9224 7.12792 18.9838 8.19762 18.9838 9.5184C18.9838 10.8381 17.9224 11.9078 16.619 11.9078C15.3114 11.9078 14.2553 10.8381 14.2553 9.5184Z" fill="#F4F4F4"/>
</svg>
