<svg width="23" height="23" viewBox="0 0 23 23" fill="none" xmlns="http://www.w3.org/2000/svg">
<path d="M11.5004 20.5L2.55196 11.3566C1.7655 10.5867 1.24642 9.59383 1.06835 8.5187C0.890276 7.44356 1.06224 6.34079 1.55986 5.36679C1.9351 4.63177 2.48324 3.99462 3.15911 3.50784C3.83498 3.02105 4.61925 2.69857 5.44728 2.56695C6.27532 2.43534 7.12343 2.49836 7.92173 2.75082C8.72003 3.00329 9.44567 3.43797 10.0389 4.01906L11.5004 5.45L12.962 4.01906C13.5552 3.43797 14.2808 3.00329 15.0791 2.75082C15.8774 2.49836 16.7255 2.43534 17.5535 2.56695C18.3816 2.69857 19.1658 3.02105 19.8417 3.50784C20.5176 3.99462 21.0657 4.63177 21.441 5.36679C21.9379 6.34042 22.1096 7.44253 21.9317 8.51705C21.7538 9.59157 21.2354 10.584 20.4498 11.3539L11.5004 20.5Z" stroke="#F4F4F4" stroke-width="1.5" stroke-linecap="round" stroke-linejoin="round"/>
</svg>
