<svg width="25" height="25" viewBox="0 0 25 25" fill="none" xmlns="http://www.w3.org/2000/svg">
<path d="M2.23307 9.97525C2.23307 8.49447 2.67269 7.04694 3.49634 5.81572C4.31999 4.58449 5.49068 3.62487 6.86036 3.0582C8.23004 2.49152 9.7372 2.34326 11.1912 2.63214C12.6453 2.92103 13.9809 3.6341 15.0292 4.68117C16.0775 5.72824 16.7914 7.06229 17.0807 8.51462C17.3699 9.96695 17.2215 11.4723 16.6541 12.8404C16.0868 14.2085 15.126 15.3778 13.8933 16.2004C12.6607 17.0231 11.2114 17.4622 9.72888 17.4622C7.74087 17.4622 5.83428 16.6734 4.42854 15.2693C3.0228 13.8653 2.23307 11.9609 2.23307 9.97525ZM23.941 22.8429L17.2247 16.0846C18.7728 14.1851 19.5314 11.7643 19.3437 9.32223C19.156 6.88013 18.0365 4.60331 16.2163 2.96208C14.3961 1.32084 12.0143 0.44058 9.56289 0.503118C7.11151 0.565655 4.77781 1.56622 3.04386 3.29812C1.30991 5.03003 0.308164 7.36096 0.245553 9.80945C0.182942 12.2579 1.06425 14.6369 2.70742 16.455C4.3506 18.273 6.63011 19.3913 9.0751 19.5787C11.5201 19.7662 13.9438 19.0085 15.8455 17.4622L22.6117 24.2205C22.6992 24.3091 22.8034 24.3794 22.9184 24.4274C23.0334 24.4754 23.1567 24.5001 23.2813 24.5C23.4046 24.501 23.5267 24.4767 23.6402 24.4286C23.7537 24.3806 23.856 24.3097 23.941 24.2205C24.036 24.1326 24.1119 24.0261 24.1638 23.9075C24.2157 23.789 24.2424 23.661 24.2424 23.5317C24.2424 23.4023 24.2157 23.2743 24.1638 23.1558C24.1119 23.0372 24.036 22.9307 23.941 22.8429Z" fill="#F4F4F4"/>
</svg>
